inDegrees=no
num_controls=7
num_derivatives=13
num_iterations=121
num_multipliers=7
num_parameters=0
num_slacks=7
num_states=26
objective=5.856599
objective_accelerations=0.629343
objective_balance=0.012689
objective_effort=0.475860
objective_height=4.615646
objective_ligament=0.123061
solver_duration=1041.866868
status=Solve_Succeeded
success=true
DataType=double
version=3
OpenSimVersion=4.4-2022-07-23-0e9fedc
endheader
time	/jointset/ground_pelvis/pelvis_tilt/value	/jointset/ground_pelvis/pelvis_tx/value	/jointset/ground_pelvis/pelvis_ty/value	/jointset/hip_r/hip_flexion_r/value	/jointset/hip_r/hip_adduction_r/value	/jointset/hip_r/hip_rotation_r/value	/jointset/back/lumbar_extension/value	/jointset/patellofemoral_r/patellar_flexion_r/value	/jointset/knee_r/knee_flexion_r/value	/jointset/knee_r/knee_adduction_r/value	/jointset/knee_r/knee_rotation_r/value	/jointset/ankle_r/ankle_angle_r/value	/jointset/subtalar_r/subtalar_angle_r/value	/jointset/ground_pelvis/pelvis_tilt/speed	/jointset/ground_pelvis/pelvis_tx/speed	/jointset/ground_pelvis/pelvis_ty/speed	/jointset/hip_r/hip_flexion_r/speed	/jointset/hip_r/hip_adduction_r/speed	/jointset/hip_r/hip_rotation_r/speed	/jointset/back/lumbar_extension/speed	/jointset/patellofemoral_r/patellar_flexion_r/speed	/jointset/knee_r/knee_flexion_r/speed	/jointset/knee_r/knee_adduction_r/speed	/jointset/knee_r/knee_rotation_r/speed	/jointset/ankle_r/ankle_angle_r/speed	/jointset/subtalar_r/subtalar_angle_r/speed	/forceset/tau_hip_flexion_r	/forceset/tau_hip_adduction_r	/forceset/tau_hip_rotation_r	/forceset/tau_knee_flexion_r	/forceset/tau_ankle_angle_r	/forceset/tau_subtalar_angle_r	/forceset/tau_lumbar_extension	lambda_cid13_p0	lambda_cid14_p0	lambda_cid14_p1	lambda_cid14_p2	lambda_cid14_p3	lambda_cid14_p4	lambda_cid14_p5	/jointset/ground_pelvis/pelvis_tilt/accel	/jointset/ground_pelvis/pelvis_tx/accel	/jointset/ground_pelvis/pelvis_ty/accel	/jointset/hip_r/hip_flexion_r/accel	/jointset/hip_r/hip_adduction_r/accel	/jointset/hip_r/hip_rotation_r/accel	/jointset/back/lumbar_extension/accel	/jointset/patellofemoral_r/patellar_flexion_r/accel	/jointset/knee_r/knee_flexion_r/accel	/jointset/knee_r/knee_adduction_r/accel	/jointset/knee_r/knee_rotation_r/accel	/jointset/ankle_r/ankle_angle_r/accel	/jointset/subtalar_r/subtalar_angle_r/accel	gamma_cid13_p0	gamma_cid14_p0	gamma_cid14_p1	gamma_cid14_p2	gamma_cid14_p3	gamma_cid14_p4	gamma_cid14_p5
1.5	-0.08518741713507172	0.03437168336658163	0.8135963743588953	0.8173089942589987	-0.2528714697374222	-0.04827818593551326	-0.6281989867366339	0.9600033222724802	0.960003322272444	0.06469502544930228	0.1729827454374711	0.3038868375624429	0.09433449844322118	0.4726656604360089	0.2170495904236856	0.5140905309616131	-2.03127295938169	0.04356541153157908	-0.5620776873833584	0.7986256742976587	-2.001451261309958	-2.001451261309872	0.05545907240466868	0.007181141705783014	-0.521165508556558	-0.1024447093668929	-0.1608609686990478	-0.008606664715881647	0.03717940614135862	-0.3123652145347486	0.01035120015282321	-0.01091260444244826	0.2140720748370493	-7.69023039022273	-39.22096441155448	-10.24724293537879	0.5028535277250068	-2.276186208550527	-632.3758564678996	65.63380595736416	0.1097044396286569	0.5529769275802293	-0.4733784084985112	-0.9899518098470246	0.2889826338092891	-0.1299195497010188	1.809008991347718	-1.494377317119864	-1.494377317119855	0.4718104485949143	0.02871242637384894	-0.6402446241144089	0.2911321092912014	8.09611735548515e-08	-3.21903438534715e-08	-1.926119580455248e-06	8.814362207282672e-09	2.09754751843146e-07	2.069173248432836e-07	-1.273905527501073e-06
1.51	-0.08045545935622901	0.03656961832127841	0.8187125894276044	0.7969486671541186	-0.2524221136671581	-0.05390606980308963	-0.6201238619058485	0.9399165389507143	0.9399165389506284	0.06527395855875526	0.1730579191399135	0.298643705482083	0.09332355024199238	0.473661620383167	0.2225122982318147	0.5090425606581536	-2.040522950385546	0.0462910957554547	-0.5634088991446796	0.8162915971478341	-2.01562086576228	-2.015620865762174	0.06038973767532695	0.007841583861025212	-0.5273771564379388	-0.09974968793648006	-0.1536664029217421	-0.009630856809555548	0.0363288029039165	-0.3081510999338059	0.01218683771681322	-0.01146487047121661	0.2074429643621284	-8.707493510207842	-38.35096813109795	-10.23777843532195	0.3905662184004745	-2.400283483106478	-627.4740792273591	65.09933045726311	0.08489400879144704	0.5391915709619219	-0.536949558457488	-0.8521017198303356	0.2620450470735187	-0.1210262668159616	1.729229725097212	-1.335589830780545	-1.335589830777624	0.5127615110077199	0.08287667061049692	-0.5990109757237413	0.2576904043898864	8.829365509491487e-08	-2.503447020395787e-08	-1.899045034580839e-06	7.430968250390995e-08	2.006950703912709e-07	2.191853475447939e-07	-1.242086986849736e-06
1.52	-0.07571547153060712	0.03882143512676335	0.8237750361498418	0.7765039243443539	-0.251945964008596	-0.05954452664376993	-0.6118753086879121	0.9196965920200721	0.9196965920200305	0.06590401170974959	0.17313933057602	0.2933409797017978	0.09233935290395895	0.4742716697915894	0.2278259605813178	0.5033368616672618	-2.048156100356411	0.0489241291952579	-0.5641922820047349	0.8333113517277929	-2.028083983074292	-2.028083983074166	0.06568308073426947	0.008428688436702112	-0.5330842485422703	-0.09709453672712451	-0.1464718371445126	-0.01065504890333971	0.03547819966664762	-0.3039369853328685	0.01402247528077247	-0.01201713650016721	0.2008138538871535	-9.777965917848702	-37.47896495422268	-10.22081528258981	0.2689191728079914	-2.540106469124834	-622.5425752397168	64.60909588594461	0.03252233188136636	0.523167835855188	-0.60492414598494	-0.6665836032486401	0.2704524769947375	-0.02035376944793184	1.679775337304579	-1.153079889057942	-1.153079889057942	0.5443460062517036	0.01404491046074543	-0.5393334687043495	0.2831580650798534	9.394207227820927e-08	-1.009373530439593e-08	-1.745731504813887e-06	1.701438359705108e-07	1.760172604279607e-07	2.248006044010542e-07	-1.135288583957104e-06
1.53	-0.07097143151113668	0.04112558575741931	0.82877717501646	0.7559911386273666	-0.2514438904294023	-0.06518739672192279	-0.6034598258697492	0.8993607099880209	0.8993607099879465	0.06658911706316203	0.1732255622736958	0.287983800079238	0.09138162608064432	0.4744688313452471	0.2329730906537497	0.496987069080201	-2.054123038907111	0.05147146471184868	-0.5642969515719697	0.8496610826661646	-2.038796550257825	-2.038796550257826	0.07139048926493355	0.008802816583887665	-0.5382623344774101	-0.09446023716569171	-0.1391897736321498	-0.0117230599048227	0.03459560304341967	-0.3000064008811822	0.01605466098252839	-0.01268768315357927	0.194108819730811	-10.85629400500141	-36.56833159629422	-10.25845580796961	0.1673984072186357	-2.675638487948734	-617.8440878614192	64.06314125629031	0.003187212633801809	0.5058468890419648	-0.6655386875622928	-0.520046784924954	0.2439639150513827	0.007347144251383888	1.593952586320543	-0.9859841443887293	-0.9859841444078628	0.5916323643562585	0.04691012185361924	-0.49360897306186	0.2519929005080688	9.780117108243665e-08	1.311841467334227e-08	-1.458289054661109e-06	2.982129996802083e-07	1.347451889212507e-07	2.233472975467365e-07	-9.488240774330944e-07
1.54	-0.06622744504702377	0.04348027994802083	0.8337127095827089	0.735427023964069	-0.2509169255298527	-0.07082873935681956	-0.5948845696193594	0.8789265744818153	0.8789265744817774	0.06733283531937037	0.1733150979238474	0.2825775270339012	0.09044992765270723	0.4742609587199194	0.2379346725704322	0.4900160015933836	-2.058421889615577	0.05390239327089858	-0.5638867933547009	0.8652660381732112	-2.047734677896869	-2.047734677896997	0.07740566131092512	0.009089478931310284	-0.5429029330982704	-0.09188885765093677	-0.1319077101198874	-0.01279107090641176	0.03371300642033904	-0.2960758164295085	0.01808684668425428	-0.01335822980716385	0.1874037855743949	-11.9348980155559	-35.65877624787268	-10.29312753910922	0.06179694665411449	-2.817716550355156	-613.1586208216071	63.55965936956537	-0.04848450391586669	0.4860582047055007	-0.7291791259362214	-0.3329660348019436	0.247171085486504	0.08261178745265406	1.530820251039741	-0.79819198016041	-0.7981919801604099	0.6058987093171408	-0.00344824949190618	-0.431836005848255	0.2705740557444006	1.044730436022996e-07	3.162459053532618e-08	-1.292231640407269e-06	4.076533333846441e-07	1.082446285110403e-07	2.291394263755675e-07	-8.460681200704575e-07
1.55	-0.06148761255194471	0.04588359129495727	0.8385754947771953	0.714828356712354	-0.2503662656107015	-0.0764633067273971	-0.5861571055171023	0.8584120092283297	0.8584120092282722	0.06813829459171	0.1734069133255399	0.2771275536631497	0.08954360016242452	0.4736341177860552	0.2426890475046709	0.4824441236795817	-2.061021297721843	0.05621078554138546	-0.5629516317552373	0.880087989524648	-2.05487086498661	-2.054870864986709	0.08371765068828149	0.0092544776898816	-0.54699773017317	-0.08938323205149412	-0.1246100140283931	-0.01395695687132935	0.03280888783489729	-0.2923376565025462	0.02014413711367026	-0.01407237978546778	0.1806850831114556	-13.00993924953297	-34.76376432371503	-10.35061533671846	-0.03864395362749044	-2.912237176751382	-608.7451870480498	63.06989284873554	-0.08049482115885187	0.4643634406900841	-0.7856789406275024	-0.1798835701927926	0.2198347023621679	0.1103962305692541	1.43706366419895	-0.6252298798270405	-0.6252298798228623	0.6483972144770884	0.0236821110006292	-0.3841650584998353	0.2394356387280761	1.14385720620612e-07	4.470866578568045e-08	-1.266030897950023e-06	4.956300151264971e-07	9.876341784244783e-08	2.432795571871562e-07	-8.39758969350266e-07
1.56	-0.05675619065281164	0.04833329365181775	0.8433596638292388	0.6942124043052281	-0.2497930894879629	-0.08208623690509434	-0.5772855856839311	0.8378353025426313	0.8378353025426011	0.06900778339027415	0.1734998203493	0.2716394596216135	0.08866210469346981	0.4725788395306845	0.2472128745552403	0.474292773104823	-2.061878920694268	0.05840563399321474	-0.5615593547807297	0.8940771843562078	-2.060162964334198	-2.06016296433427	0.09021156656695138	0.009307803347203188	-0.5505270672556286	-0.08692245338469781	-0.1173123179370194	-0.01512284283633318	0.03190476924948526	-0.2885994965756031	0.022201427543063	-0.01478652976390763	0.1739663806484234	-14.07685425486855	-33.87038183085665	-10.40525065821807	-0.1431245980621102	-3.012127215026775	-604.3531668038202	62.62686888472548	-0.1341719682172563	0.4399486279718413	-0.8450736581275312	0.01539099196575572	0.2244623217549452	0.1740348624614051	1.364268947064514	-0.4293744317301786	-0.4293744317301782	0.6422840095797941	-0.02578286974194091	-0.3187440073598701	0.261604669215255	1.240171653324101e-07	5.847126162960394e-08	-1.246290020739331e-06	5.82270387100383e-07	8.895736301241245e-08	2.621211485402784e-07	-8.414729219791689e-07
1.57	-0.05203745433132509	0.05082701029341991	0.8480595080968664	0.673596605825412	-0.2491986033732492	-0.0876928869245312	-0.568278569153321	0.8172149596804236	0.8172149596803817	0.06994321973971258	0.1735926464472216	0.2661189014475185	0.08780490382149986	0.4710944812362394	0.2514843366047785	0.465586694649234	-2.060977700470644	0.06047005324900048	-0.5597046995008831	0.9071670045756591	-2.063583134361256	-2.063583134361272	0.09689156021175095	0.009241759006224032	-0.5534856190870371	-0.08452583129445734	-0.109955548729523	-0.01639290518679758	0.03098578805610037	-0.2851492371367591	0.02441103635758832	-0.01558186923606626	0.1672090100130494	-15.13240818042955	-32.95475926121398	-10.49644831832004	-0.2358403982201016	-3.091487297971531	-600.2631611074715	62.18004985767789	-0.1666544762012026	0.413841993019271	-0.8967225906336642	0.1729573938358429	0.1942051775963445	0.2012625848547169	1.257470980923114	-0.2499949543383091	-0.2499949543300154	0.6830735041245317	0.0007485656725700202	-0.269533424269802	0.2273657679073928	1.332970696610653e-07	7.308200821548894e-08	-1.234623975086831e-06	6.6724037186431e-07	7.874525298057338e-08	2.868395655703175e-07	-8.532157537944393e-07
1.58	-0.04733577893601192	0.05336206095543252	0.8526696220496666	0.6529989135190695	-0.2485841183759823	-0.09327897404633154	-0.55914542793621	0.7965700837846952	0.7965700837846801	0.07094589931800717	0.1736843648581087	0.260571733224462	0.08697140412822521	0.4691666542960489	0.2554796786373335	0.456346710139326	-2.058257685996017	0.06240541050905682	-0.5574467752566944	0.9193021216566066	-2.065069571034103	-2.065069571034063	0.1036602123443516	0.009086265943174248	-0.5558490770479823	-0.08218221764505991	-0.1025987795221456	-0.01766296753730677	0.03006680686269816	-0.2816989776979363	0.02662064517210283	-0.01637720870829296	0.1604516393775786	-16.17404381131324	-32.04003772278065	-10.58467071052682	-0.3326101965902307	-3.178334635805138	-596.1852999703266	61.78238015716263	-0.2228656973664427	0.3847246245753867	-0.9518548689912893	0.3791498421664336	0.1986499226090459	0.2546886553297552	1.173328319363886	-0.04262776088809923	-0.04262776088809963	0.660015707139975	-0.04367261415618442	-0.1997252332670191	0.2510029810467778	1.419701176973941e-07	8.719074183038325e-08	-1.22749343022887e-06	7.471625478550136e-07	6.914183678420714e-08	3.134514859951664e-07	-8.696135477991342e-07
1.59	-0.0426555674377208	0.05593561131956386	0.8571847685107888	0.6324375083070541	-0.2479509903001087	-0.09884038370107771	-0.5498959583139672	0.7759200580693995	0.775920058069381	0.07201680138281641	0.173774016604791	0.2550038964858212	0.08616099526355658	0.4667997507616111	0.25917659949404	0.4466018090278329	-2.053706992747126	0.06419623346256863	-0.5547728626920193	0.9304128346553987	-2.064597248129417	-2.064597248129335	0.110523113855543	0.008829886286108316	-0.5576143951883678	-0.07990862884888186	-0.0952138335381349	-0.01905688317308903	0.02913859740112695	-0.2785656145162537	0.02895852663613088	-0.01724226712778473	0.1536943763861457	-17.19985184767141	-31.11537317171503	-10.7049928619322	-0.4201929791123711	-3.235945587641447	-592.4911552326954	61.40004768386485	-0.2549803586540481	0.3541176392208117	-0.9978516858901771	0.5404951338623114	0.1657234220388537	0.2832932357912273	1.05309756974385	0.1428800009024599	0.1428800009085835	0.6997089168890234	-0.01860770342060183	-0.1493179338346403	0.2140846351124615	1.498195750512799e-07	1.006181721275045e-07	-1.226518207877784e-06	8.202341262249138e-07	6.036450507883972e-08	3.426331610272572e-07	-8.92328790489476e-07
